<svg width="137" height="48" viewBox="0 0 137 48" fill="none" xmlns="http://www.w3.org/2000/svg">
<g clip-path="url(#clip0_72_1403)">
<path d="M2.1563 43.0293C1.43553 43.0293 0.810864 42.6759 0.282301 41.9692C0.0961024 41.6924 0 41.4332 0 41.1859C0 40.909 0.0961024 40.6322 0.282301 40.3554C0.564602 39.9255 0.876935 39.7135 1.2193 39.7135C1.34543 39.7135 1.45355 39.7311 1.54965 39.7606C1.92205 39.8548 2.28243 39.896 2.6308 39.896C3.0993 39.896 3.58582 39.8195 4.08435 39.6663C7.14762 38.9596 8.77535 38.6062 8.96155 38.6062L14.7818 37.3164C14.5956 36.9807 14.4995 36.6744 14.4995 36.3976C14.4995 35.9677 14.6857 34.6779 15.0641 32.5341C15.1902 31.8921 15.2503 31.2443 15.2503 30.6023C15.2503 30.0192 15.2022 29.4244 15.1121 28.806L15.0641 28.1169C15.0641 27.4455 15.2142 26.8389 15.5085 26.297C15.8028 25.7611 16.1873 25.4901 16.6558 25.4901C17.5927 25.4901 18.0612 26.7152 18.0612 29.1711L17.7789 30.9674C17.2804 34.5542 16.854 36.5508 16.5116 36.9513L21.7672 35.8911C27.4613 34.8781 30.8549 34.1596 31.948 33.7297C32.2003 33.6354 32.4466 33.5942 32.6988 33.5942C33.1373 33.5942 33.5457 33.7297 33.9181 34.0065C34.3866 34.3716 34.6209 34.8487 34.6209 35.4317C34.6209 35.8322 34.4647 36.4447 34.1524 37.2693C33.9962 37.6344 33.7319 37.8229 33.3535 37.8229C33.1313 37.8229 32.9391 37.7405 32.7649 37.5697C32.5907 37.3989 32.4286 37.2045 32.2724 36.9689C32.1162 36.7392 31.882 36.6214 31.5696 36.6214L27.7195 37.2222C27.0288 37.2222 24.0136 37.711 18.6619 38.6946L10.0247 40.5792C8.89548 40.7971 7.77228 41.0386 6.64909 41.3154C5.58595 41.498 4.53483 41.9162 3.50774 42.5581C3.06927 42.8644 2.61879 43.0175 2.14429 43.0175L2.1563 43.0293ZM6.0965 29.9603C5.87426 29.9603 5.628 29.8366 5.3457 29.5952C4.84717 29.1947 4.5949 28.8413 4.5949 28.5351C4.5949 28.1699 4.62493 27.9697 4.691 27.9343C4.75106 27.9049 4.7871 27.8754 4.7871 27.8401C5.2556 27.5338 5.71209 27.2099 6.15055 26.8742C7.18366 25.9554 8.34289 25.2487 9.62226 24.7598C10.5893 24.4241 11.4542 23.9176 12.205 23.2403L19.2445 16.7088H19.2926C19.5448 16.4614 19.701 16.2317 19.7611 16.0197C19.7611 15.9608 19.719 15.8843 19.6409 15.79C19.5628 15.6958 19.4908 15.6546 19.4307 15.6546C18.3676 15.6546 17.3645 15.7311 16.4275 15.8843C14.8658 16.1611 13.2862 16.3319 11.6885 16.3908C11.0338 16.3908 10.4271 16.2317 9.88053 15.9078C9.33395 15.5839 9.04564 15.1186 9.0096 14.5061C9.0096 14.1409 9.14775 13.7993 9.43005 13.4931C9.61625 13.3105 9.82047 13.2163 10.0427 13.2163L10.325 13.2634C11.1359 13.5402 11.9527 13.6757 12.7636 13.6757C13.2922 13.6757 13.8327 13.6227 14.3853 13.5166C14.9319 13.4106 15.5025 13.34 16.0972 13.3105C16.3134 13.3105 16.5296 13.2811 16.7278 13.2163C16.932 13.1574 17.1423 13.122 17.3585 13.122C18.1694 13.0926 18.9202 12.8335 19.6109 12.3387C20.3016 11.8499 21.1606 11.6025 22.1937 11.6025L23.1306 11.6497C24.6923 11.6497 25.4792 12.327 25.4792 13.6757C25.4491 14.2882 25.1368 14.7947 24.5422 15.1952C22.3198 16.6381 20.2896 18.3697 18.4397 20.3957C19.0043 21.2555 19.659 21.8681 20.4098 22.2332C21.8513 23.0636 23.2268 23.8293 24.5422 24.536C25.323 24.9954 25.7314 25.5667 25.7615 26.2381C25.7615 26.6033 25.6593 26.9036 25.4551 27.1333C25.2509 27.363 24.9626 27.4808 24.5842 27.4808C24.0196 27.4808 23.425 27.1746 22.8003 26.562C22.3618 26.0732 20.7041 25.072 17.827 23.5701C16.9801 23.0813 16.4515 22.834 16.2293 22.834C15.977 22.834 15.7308 22.9576 15.4785 23.1991C12.7876 25.5903 11.0998 26.9449 10.4091 27.2511C9.09369 27.8636 7.90442 28.647 6.84129 29.5952C6.55899 29.8425 6.30672 29.9603 6.09049 29.9603H6.0965Z" fill="#282828"/>
<path d="M33.5398 32.3574C32.9752 32.328 32.6929 32.0983 32.6929 31.6684C32.6929 31.5152 32.7469 31.3857 32.855 31.2797C32.9632 31.1736 33.3656 30.9498 34.0503 30.6141C36.3327 29.6306 38.1947 28.3584 39.6363 26.7977C39.9186 26.4914 40.2609 26.2441 40.6694 26.0615C41.7325 25.5727 42.7356 24.8188 43.6726 23.8058C44.0149 23.4053 44.3933 23.0401 44.8018 22.6986C45.4565 22.086 46.1292 21.2909 46.8199 20.3074C48.0993 18.7408 48.9162 17.1329 49.2585 15.4779C49.2285 15.419 49.1204 15.3837 48.9282 15.3837C45.1141 15.6605 42.7836 15.8725 41.9367 16.0257C41.4382 15.9668 40.8856 15.9314 40.297 15.9314C39.8285 15.9314 38.6092 15.9786 36.6391 16.0669L36.591 16.114C35.9003 16.0551 35.5579 15.7312 35.5579 15.1481C35.5579 14.4767 37.0295 14.0762 39.9666 13.9525C41.4682 13.8936 42.9398 13.7052 44.3753 13.3989C44.6276 13.3695 44.9219 13.3518 45.2643 13.3518H46.0151C47.6128 13.3518 49.1564 12.9984 50.658 12.2917C50.8442 12.168 51.0484 12.1091 51.2707 12.1091C51.8353 12.1091 52.2377 12.4154 52.49 13.0279C52.6161 13.3636 52.6762 13.6698 52.6762 13.9467C52.6762 14.0998 52.6581 14.2411 52.6281 14.3589C52.502 14.6652 52.4059 15.0009 52.3458 15.3719C52.1596 16.2318 51.8112 17.0269 51.3127 17.7631C51.0304 18.0988 50.8442 18.4227 50.7481 18.729C49.4327 21.7386 47.4146 24.1886 44.6937 26.0909C42.4713 27.8696 39.9546 29.4833 37.1376 30.9204C35.8222 31.7508 34.6209 32.222 33.5218 32.3457L33.5398 32.3574ZM58.7366 48.0001C58.5504 48.0001 58.3642 47.9707 58.172 47.9059C58.172 47.8765 58.154 47.8588 58.124 47.8588C57.9378 47.8294 57.7636 47.7646 57.6074 47.6762C56.9167 47.2757 56.5743 46.7869 56.5743 46.2038C56.5743 45.8033 56.8146 45.4087 57.3011 45.0082C57.7876 44.6077 58.106 44.1012 58.2621 43.4887C59.073 39.2247 59.4994 36.9278 59.5295 36.5862C59.5295 36.2799 59.3733 36.1268 59.061 36.1268H58.8748C57.8116 36.3447 56.7305 36.4801 55.6373 36.539C54.2919 36.6038 52.9765 36.7982 51.6971 37.1398C51.1626 37.2635 50.604 37.3224 50.0093 37.3224C49.0063 37.3224 48.0693 37.552 47.1923 38.0114C47.0662 38.1057 46.928 38.1469 46.7719 38.1469C46.4595 38.1174 46.1953 37.9761 45.973 37.7346C45.6307 37.181 45.4565 36.7216 45.4565 36.3565C45.4565 35.6851 45.8169 35.3435 46.5376 35.3435H46.8199C47.0722 35.4082 47.4746 35.4377 48.0392 35.4377C48.8501 35.4377 49.715 35.3435 50.622 35.1609C52.0635 34.8252 53.5171 34.6544 54.9886 34.6544H55.319C56.1959 34.6544 56.8026 34.407 57.1509 33.9182C57.3672 33.7062 57.5233 33.5943 57.6194 33.5943H57.8537C58.3222 33.5943 58.8808 33.394 59.5175 32.9935C60.1601 32.593 60.6827 32.3928 61.0911 32.3928C61.5596 32.3928 61.9501 32.5754 62.2624 32.9464C62.4786 33.1938 62.5927 33.4824 62.5927 33.8181C62.5927 34.0006 62.5447 34.2186 62.4546 34.46C61.5777 36.8217 60.983 39.3366 60.6707 42.0046C60.5446 42.8939 60.3884 43.689 60.2022 44.3957C60.0761 44.7609 60.016 45.1496 60.016 45.5442C60.016 45.821 60.046 46.1096 60.1121 46.4158L60.1601 46.6927C60.1601 47.0932 60.01 47.4053 59.7157 47.635C59.4153 47.8647 59.097 47.9825 58.7546 47.9825L58.7366 48.0001ZM59.067 31.8038C58.3162 31.8038 57.9378 31.1619 57.9378 29.872C57.9678 28.9533 58.0159 28.382 58.0759 28.17C58.4483 26.5444 58.6405 24.9366 58.6405 23.3405L58.5925 22.2804C58.5925 20.5606 58.6886 18.8586 58.8748 17.1741L59.2051 11.2846C59.2051 10.301 59.079 9.35279 58.8327 8.43401L58.7847 7.83328C58.7847 7.03819 59.1451 6.6377 59.8658 6.6377C60.1481 6.6377 60.4304 6.73193 60.7127 6.9145C61.1812 7.25021 61.4155 7.77438 61.4155 8.48113C61.0731 12.8689 60.8028 16.7795 60.6166 20.2132H60.7127C60.7428 20.1837 62.9051 20.0777 67.1876 19.8892C67.9384 19.8892 68.437 20.2249 68.6892 20.9022C68.7853 21.0848 68.8274 21.2674 68.8274 21.4559C68.8274 21.9447 68.5211 22.3157 67.9144 22.5631C67.3018 22.8105 66.7311 22.9282 66.2026 22.9282C65.8602 22.9282 65.5118 22.8517 65.1695 22.6986C65.1395 22.6691 65.0494 22.6279 64.9112 22.5808C64.7731 22.5336 64.2805 22.5101 63.4336 22.5101C62.1182 22.5395 61.1812 22.5867 60.6166 22.6455V23.6586H60.6647L60.5686 26.4679C60.5686 27.3572 60.6467 28.2465 60.8028 29.1359C60.8629 29.3832 60.8989 29.6129 60.8989 29.8249C60.8989 30.6848 60.5085 31.2797 59.7277 31.6213C59.5054 31.7449 59.2892 31.8038 59.073 31.8038H59.067Z" fill="#282828"/>
<path d="M86.2278 31.9453C86.1017 31.9453 85.9756 31.8982 85.8554 31.8098C85.3869 31.533 85.0446 31.1502 84.8223 30.6614C84.1016 29.2537 83.0384 28.0994 81.6329 27.2101C80.8821 26.627 80.2695 26.3384 79.801 26.3384C79.6448 26.3384 79.5127 26.3855 79.4046 26.4739C79.2964 26.5681 79.2063 26.6447 79.1463 26.7036C76.083 29.0947 74.221 30.6142 73.5603 31.2562C73.0918 31.6861 72.6834 31.8982 72.341 31.8982C71.8725 31.8982 71.4941 31.533 71.2118 30.7909C71.1518 30.6672 71.1157 30.5318 71.1157 30.3787C71.1157 29.825 71.5362 29.2714 72.3831 28.7237C74.6955 27.3161 76.8398 25.6847 78.8099 23.8471C81.3146 21.7033 82.9724 20.0307 83.7832 18.8292C84.0655 18.4935 84.2037 18.2756 84.2037 18.1872C84.2037 18.1283 84.1796 18.04 84.1316 17.934C84.0835 17.828 82.5099 17.7573 79.4166 17.7279C78.6357 17.7279 77.8849 17.8515 77.1642 18.093C76.9119 18.1578 76.6777 18.1872 76.4614 18.1872C76.023 18.1872 75.6325 18.0518 75.2902 17.775C74.7256 17.345 74.4433 16.7796 74.4433 16.0729C74.5994 15.4898 75.0199 15.2012 75.7106 15.2012C77.6807 15.4191 79.0742 15.5252 79.8851 15.5252C80.8881 15.5252 81.9032 15.4663 82.9363 15.3426C83.9033 15.3426 84.8764 15.054 85.8434 14.4709C86.0957 14.3178 86.2819 14.2412 86.408 14.2412C86.6603 14.2412 87.1588 14.5946 87.9096 15.3013C88.282 15.6076 88.4742 15.8844 88.4742 16.1318C88.4742 16.3144 88.3961 16.5323 88.24 16.7737C86.8345 19.1355 84.8163 21.5737 82.1855 24.0886C81.9032 24.336 81.7651 24.5362 81.7651 24.6893C81.7651 24.9661 82.2636 25.5492 83.2667 26.4385C83.6751 26.8037 84.0475 27.1747 84.3959 27.5458C84.5821 27.7283 84.7863 27.8226 85.0085 27.8226C85.1647 27.8226 85.3149 27.7872 85.453 27.7048C85.5911 27.6282 85.7113 27.587 85.8074 27.587C86.1197 27.587 86.2759 27.7578 86.2759 28.0935C86.3059 29.0123 86.5101 29.8898 86.8885 30.7144L86.9366 30.9441C86.9366 31.586 86.7023 31.9276 86.2338 31.9571L86.2278 31.9453ZM86.0416 45.1026C84.8824 45.1026 84.3058 44.2427 84.3058 42.5229C84.3058 40.3791 83.8493 38.3355 82.9423 36.4037C82.8162 36.1269 82.6901 35.6852 82.5699 35.0668C82.5699 34.6368 82.8522 34.4248 83.4168 34.4248C84.0115 34.4248 84.3718 34.6545 84.498 35.1139C84.6842 35.8795 84.9064 36.6157 85.1527 37.3225C85.5911 38.6123 85.9035 39.9315 86.0897 41.2802C86.1497 41.6807 86.2218 42.0636 86.2999 42.4287C86.378 42.7939 86.6182 43.0118 87.0267 43.0707C87.2789 43.1296 87.4772 43.1944 87.6393 43.2533C87.7955 43.3121 87.8736 43.5595 87.8736 43.9895L87.9216 44.3546C86.9486 44.8434 86.3239 45.0908 86.0476 45.0908L86.0416 45.1026ZM89.2791 47.3112C88.9968 47.3112 88.7145 47.2523 88.4322 47.1286C87.8375 46.8518 87.5072 46.3747 87.4471 45.7033C87.4471 45.4854 87.6213 45.0437 87.9637 44.3664L88.4802 44.3193L89.3271 44.3664C91.1711 44.3664 92.9069 43.7833 94.5347 42.6172C94.9071 42.3109 95.0993 41.8339 95.0993 41.1919L95.1473 41.0093C94.6488 40.762 94.3485 40.5971 94.2584 40.5028C93.8499 40.0434 93.3334 39.8137 92.7087 39.8137C91.4894 39.908 90.6606 40.3202 90.2221 41.0564C89.8497 41.6101 89.4533 41.8869 89.0508 41.8869C88.8646 41.8869 88.6604 41.8103 88.4382 41.6572C87.9997 41.3215 87.7835 40.9387 87.7835 40.5087C87.7835 40.3556 87.8135 40.1848 87.8796 40.0022C88.1619 39.3897 88.5823 38.9126 89.1469 38.5769C90.2401 37.935 91.3693 37.611 92.5225 37.611C93.898 37.611 94.871 37.8879 95.4296 38.4415L95.76 38.7183C95.9762 38.3826 96.1684 37.7995 96.3246 36.9691C96.5769 36.1092 96.697 35.2375 96.697 34.3482V34.0243C96.697 33.0761 97.0574 32.599 97.7781 32.599C98.1866 32.599 98.5229 32.758 98.7872 33.082C99.0515 33.4059 99.1836 33.8123 99.1836 34.3011C99.1836 34.9431 98.4509 37.6464 96.9793 42.3993C96.727 42.9823 96.6069 43.5065 96.6069 43.9659L96.6549 44.655C96.6549 45.2086 95.9041 45.5443 94.4025 45.668C92.8709 45.6974 91.4774 46.1745 90.2281 47.0933C89.8857 47.2464 89.5734 47.3229 89.2911 47.3229L89.2791 47.3112ZM96.1744 32.5872C96.0483 32.5872 95.9222 32.5401 95.802 32.4518C95.0813 31.8393 94.7209 31.1973 94.7209 30.52C94.7209 30.308 94.7509 30.0901 94.817 29.878C95.2855 28.1583 95.6278 25.3666 95.8501 21.5031C96.1324 18.0047 96.2885 15.6606 96.3186 14.465C96.3186 13.0869 96.1144 12.1328 95.7059 11.6145C95.1714 10.7252 94.9071 9.78871 94.9071 8.80515V8.48123L94.859 8.34577C94.859 8.09841 94.877 7.86282 94.9071 7.63313C94.9371 7.40344 95.1413 7.28564 95.5197 7.28564C95.802 7.28564 96.1924 7.4211 96.691 7.69791C98.0664 8.71092 98.7572 11.2729 98.7572 15.3838C98.7572 16.6088 98.6791 17.8221 98.5229 19.0177C98.4268 19.695 98.1625 22.1627 97.7241 26.4268C97.2556 29.9252 96.9913 31.798 96.9252 32.0395C96.8652 32.4047 96.6129 32.5931 96.1744 32.5931V32.5872Z" fill="#282828"/>
<path d="M124.321 15.2247C124.309 15.4014 124.206 15.5604 124.02 15.7195C123.948 15.7783 123.87 15.8372 123.798 15.8902C123.732 15.9433 123.672 15.9963 123.606 16.0434C123.354 16.2377 123.089 16.3614 122.813 16.4085C121.75 16.5911 121.065 16.6147 120.795 16.4792C120.482 16.3261 120.398 15.743 120.362 15.5251V15.4544C120.32 15.2718 120.212 14.889 120.206 14.8831C120.206 14.8714 120.2 14.8655 120.2 14.8596C120.212 14.8242 120.284 14.7771 120.32 14.7477L120.362 14.7064C120.675 14.4296 121.059 14.141 121.576 14.0704C121.756 14.0468 121.924 13.982 122.086 13.9231C122.164 13.8878 122.242 13.8642 122.326 13.8407C122.459 13.7936 122.573 13.7936 122.663 13.8289C123.155 14.0115 123.702 14.2588 124.122 14.7182C124.273 14.889 124.345 15.0598 124.333 15.2306L124.321 15.2247Z" fill="#FFE888"/>
<path d="M122.525 18.2873C122.345 18.4286 122.146 18.6112 121.978 18.8409C121.846 19.0235 121.648 19.0883 121.45 19.1354C121.438 19.1354 121.432 19.1413 121.426 19.1413L120.789 19.3239C120.747 19.3415 120.681 19.3592 120.591 19.3828H120.567C120.032 19.53 119.588 19.4711 119.155 19.2002C118.663 18.8939 118.501 18.4404 118.663 17.8868C118.843 17.3273 119.179 16.9857 119.696 16.8502C119.756 16.8326 119.81 16.7972 119.846 16.7737C119.864 16.756 119.906 16.7266 119.918 16.7266C119.966 16.7501 120.002 16.809 120.044 16.862C120.068 16.8974 120.092 16.9209 120.11 16.9445C120.369 17.2566 120.705 17.4098 121.107 17.4098H121.125C121.492 17.4098 121.846 17.3862 122.116 17.3567C122.441 17.3391 122.597 17.4215 122.711 17.6866C122.795 17.8927 122.729 18.1047 122.519 18.2814L122.525 18.2873Z" fill="#F4D13D"/>
<path d="M118.008 19.359C118.008 19.359 117.996 19.3708 117.99 19.3767C117.84 19.5887 117.359 19.7595 117.005 19.8361C116.999 19.8361 116.987 19.842 116.969 19.842C116.843 19.895 116.692 19.9185 116.47 19.9185C115.761 20.0245 115.587 19.9303 115.581 19.9303C115.569 19.9126 115.545 19.895 115.521 19.8891C115.485 19.8832 115.437 19.8655 115.347 19.8302C114.957 19.6653 114.572 19.5004 114.188 19.3355C114.02 19.2707 113.978 19.2 113.978 19.1823C114.014 18.6051 114.596 17.8631 115.203 17.8513L115.605 17.8395C115.852 17.8277 116.086 17.8218 116.326 17.8159C116.47 17.8101 116.632 17.8218 116.765 17.8866C116.867 17.9337 116.951 17.9455 117.029 17.9102C117.119 17.8748 117.185 17.8042 117.239 17.6805L117.257 17.6275C117.275 17.5745 117.299 17.5156 117.323 17.4626C117.329 17.4449 117.335 17.4449 117.341 17.4508C117.335 17.5862 117.365 17.6923 117.443 17.7629C117.509 17.8395 117.617 17.8748 117.756 17.8689C117.653 18.293 117.798 18.6758 117.924 19.0174C117.948 19.0881 117.972 19.1705 117.984 19.253L117.996 19.3237L118.002 19.3472L118.008 19.359Z" fill="#FFE888"/>
<path d="M118.296 15.9843C117.834 16.4791 117.287 16.803 116.681 16.9502C116.567 16.9856 116.446 16.9856 116.314 16.9915C116.254 16.9915 116.188 16.9915 116.134 16.9973C115.852 16.9973 115.473 16.9738 115.119 16.7794C114.518 16.4378 114.404 15.5308 114.717 14.9831C114.885 14.6827 115.095 14.4884 115.371 14.3883C115.678 14.2764 116.008 14.2057 116.356 14.1821H116.41C116.621 14.1821 116.801 14.2705 116.909 14.4472C117.125 14.8064 117.443 15.0008 117.906 15.0597C118.158 15.0832 118.35 15.2246 118.429 15.4248C118.501 15.6192 118.447 15.8253 118.29 15.9961L118.296 15.9843Z" fill="#F4D13D"/>
<path d="M120.975 13.3283C120.633 13.7346 120.182 13.9879 119.702 14.2588L119.659 14.2824C119.263 14.3707 118.945 14.3472 118.933 14.3472C118.494 14.3589 118.146 14.2765 117.834 14.0998C117.569 13.9584 117.365 13.5874 117.329 13.1987C117.311 12.9867 117.335 12.5803 117.701 12.2917C117.888 12.1386 118.062 12.0384 118.23 11.9678L118.344 11.9148C118.344 11.9148 118.59 11.7793 118.993 11.7793C119.017 11.7793 119.047 11.7852 119.071 11.7852C119.257 11.8087 119.443 11.8205 119.617 11.8264C119.756 11.8323 119.9 11.8323 120.044 11.8441C120.128 11.8559 120.194 11.8618 120.23 11.8676C120.236 11.8735 120.248 11.8794 120.266 11.8794C120.32 11.8912 120.5 11.9501 120.717 12.1445C120.969 12.3741 120.999 12.4566 121.035 12.5449C121.035 12.5567 121.041 12.5685 121.047 12.5803C121.239 12.8159 121.221 13.0279 120.975 13.3283Z" fill="#F4D13D"/>
<path d="M136.946 15.4309C136.88 15.2012 136.742 15.0539 136.52 14.9774C136.309 14.9067 136.105 14.8419 135.907 14.7477C135.21 14.4237 134.448 14.1057 133.631 13.9585C133.09 13.8583 132.531 13.77 131.997 13.6875C131.474 13.6051 130.928 13.5226 130.399 13.4284C129.588 13.2812 128.723 13.2223 127.84 13.2517C128.321 12.9455 128.615 12.492 128.838 12.0915C128.91 11.9678 128.976 11.8382 129.042 11.7145C129.114 11.5791 129.186 11.4436 129.264 11.314C129.582 10.7545 129.54 10.2657 129.12 9.78865C128.952 9.59429 128.753 9.5295 128.507 9.58251C127.925 9.7003 127.336 9.88877 126.585 10.1774C126.345 10.2716 126.099 10.354 125.858 10.4247C125.39 10.5778 124.903 10.731 124.453 11.0137C124.459 11.0019 124.459 10.9901 124.465 10.9842L124.483 10.943C124.615 10.6014 124.747 10.2657 124.879 9.92411C125.138 9.27625 125.402 8.60484 125.642 7.93343C125.828 7.41515 126.003 6.88509 126.171 6.37269C126.381 5.74251 126.591 5.08877 126.825 4.45858C127.102 3.7165 127.036 3.04509 126.627 2.4149C126.525 2.26177 126.375 2.02619 126.075 1.99674C125.438 1.94374 124.933 2.1322 124.591 2.56803L124.495 2.68582C124.159 3.10987 123.81 3.5457 123.438 3.95208C123.065 4.35846 122.657 4.75306 122.267 5.13588C121.882 5.50104 121.492 5.88386 121.125 6.27846C121.113 6.29024 121.101 6.30202 121.089 6.3138C121.083 6.3138 121.083 6.31969 121.077 6.31969C120.993 6.06055 120.903 5.8073 120.813 5.55404C120.735 5.33613 120.657 5.11822 120.585 4.9003C120.435 4.47036 120.206 4.07576 119.906 3.73417C119.546 3.32779 119.131 3.26889 118.669 3.55159C117.99 3.96975 117.491 4.61171 117.149 5.51871C116.825 6.3668 116.825 7.25024 116.843 8.08656C116.849 8.19846 116.849 8.30447 116.849 8.41638C116.819 8.35159 116.795 8.2868 116.765 8.22202C116.608 7.84509 116.44 7.45049 116.182 7.10889C116.02 6.90276 115.858 6.70251 115.69 6.49637C115.461 6.21368 115.227 5.92509 115.005 5.63061C114.326 4.69417 113.509 3.79306 112.362 2.70349C111.809 2.18521 111.209 1.65515 110.41 0.983737C110.32 0.913062 110.236 0.836498 110.152 0.765823C109.905 0.553798 109.653 0.335884 109.383 0.147418C109.281 0.0826327 108.986 -0.117613 108.71 0.0944118C108.296 0.418338 108.085 0.777602 108.061 1.18987C108.037 1.61981 108.091 2.05564 108.145 2.42668C108.224 2.93907 108.362 3.42791 108.542 4.01098C108.692 4.49392 108.86 5.00631 109.113 5.48926C109.317 5.8603 109.533 6.26668 109.677 6.70251C109.815 7.12656 110.013 7.56828 110.296 8.09834C110.638 8.7403 111.035 9.35871 111.419 9.95944C111.587 10.2245 111.755 10.4836 111.924 10.7545C112.05 10.9489 112.176 11.1668 112.296 11.4083C112.254 11.3847 112.212 11.3612 112.164 11.3435C111.113 10.8782 110.14 10.5837 109.191 10.4424C109.131 10.4306 109.064 10.4247 108.998 10.4188L108.872 10.4012C107.863 10.248 106.944 10.2834 106.061 10.4954C105.917 10.5307 105.791 10.6014 105.677 10.7015C105.359 10.9842 105.304 11.6321 105.569 12.0561C105.851 12.5155 106.265 12.8571 106.662 13.181L106.728 13.234C106.8 13.2988 106.878 13.3636 106.95 13.4284C107.227 13.664 107.515 13.8996 107.827 14.1116C107.581 14.0645 107.341 14.0409 107.094 14.0409C106.181 14.0409 105.431 14.4473 104.86 15.2542C104.71 15.4662 104.65 15.6959 104.692 15.9079C104.734 16.1317 104.884 16.332 105.124 16.491C105.256 16.5793 105.407 16.65 105.557 16.7207C105.911 16.8856 106.271 17.0387 106.62 17.1624C106.956 17.2861 107.245 17.4863 107.545 17.6983C107.635 17.7631 107.731 17.8279 107.821 17.8868C108.212 18.1459 108.614 18.2873 109.046 18.3167C109.107 18.3167 109.167 18.3226 109.227 18.3285C109.335 18.3344 109.443 18.3462 109.545 18.3462C109.521 18.3639 109.503 18.3815 109.479 18.3992C109.395 18.4522 109.311 18.5111 109.233 18.57C108.536 19.1059 107.857 19.7479 107.034 20.6608C106.277 21.503 105.701 22.4394 105.328 23.4407C104.914 24.5597 104.842 25.5668 105.112 26.5091C105.328 27.263 105.479 27.6282 106.566 27.6929C107.208 27.7283 107.599 27.5163 107.839 27.0039C107.977 26.7035 108.206 26.4385 108.53 26.1911C108.848 25.9555 109.149 25.6551 109.425 25.3018C109.995 24.5597 110.776 23.6056 111.719 22.7987C111.761 22.7634 111.809 22.728 111.857 22.6986C111.875 22.6868 111.899 22.6691 111.918 22.6574L111.881 22.7869C111.815 23.0048 111.749 23.2286 111.695 23.4524C111.473 24.3536 111.329 25.3077 111.275 26.2971C111.209 27.4986 111.227 28.4939 111.329 29.4363C111.377 29.8426 111.479 30.3668 111.833 30.8144L111.857 30.8439C111.942 30.9499 112.05 31.0794 112.23 31.0794H112.254C112.614 31.05 113.077 30.9734 113.425 30.5906C113.515 30.4905 113.605 30.3904 113.689 30.2902C113.779 30.1901 113.864 30.09 113.954 29.9958L114.146 29.7837C114.56 29.3244 114.987 28.8473 115.323 28.3113C115.341 28.2819 115.353 28.2701 115.353 28.2642C115.359 28.2701 115.371 28.2819 115.383 28.3055C115.425 28.3761 115.479 28.435 115.533 28.4939L115.563 28.5293C115.647 28.6176 115.726 28.6588 115.816 28.6647C115.894 28.6706 115.978 28.6294 116.056 28.5587C116.146 28.4763 116.236 28.3997 116.326 28.3231C116.681 28.011 117.047 27.6929 117.275 27.2394C117.311 27.1747 117.359 27.1099 117.425 27.0451C117.443 27.0215 117.84 26.4974 117.996 26.2029L118.008 26.1852C118.008 26.1852 118.02 26.1558 118.026 26.1499C118.254 25.661 118.386 25.2134 118.434 24.7894C118.44 24.7305 118.458 24.6834 118.507 24.6245C118.549 24.5774 118.609 24.5067 118.657 24.4949C118.729 24.648 119.227 25.661 119.552 26.0615C119.57 26.0851 119.588 26.1086 119.606 26.1322L119.648 26.1793C119.858 26.4502 120.074 26.7271 120.308 26.9862C120.993 27.7342 121.738 28.5234 122.633 29.1653C123.42 29.7307 124.201 30.09 125.017 30.2549C125.54 30.3668 126.021 29.9722 126.123 29.554C126.201 29.2242 126.141 28.918 126.063 28.6058C125.991 28.3231 125.924 28.0404 125.858 27.7518C125.75 27.3042 125.642 26.839 125.522 26.3855C125.27 25.4549 124.939 24.3771 124.345 23.3818L124.399 23.3994C124.483 23.4348 124.567 23.4642 124.657 23.4996L124.867 23.5761C125.3 23.741 125.744 23.9059 126.201 24.0237C127.054 24.2358 127.895 24.2181 128.832 24.171C129.402 24.1474 129.901 23.9472 130.315 23.5761C130.459 23.4524 130.495 23.3111 130.423 23.1344C130.369 22.999 130.279 22.8988 130.183 22.8046L130.135 22.7457C129.985 22.5867 129.841 22.4277 129.69 22.2686C129.39 21.9506 129.078 21.6267 128.807 21.2792C128.729 21.1732 128.645 21.0731 128.567 20.9671C128.237 20.5371 127.895 20.0954 127.498 19.7008C127.39 19.5948 127.3 19.4711 127.204 19.3415L127.132 19.2473C127.132 19.2473 127.126 19.2355 127.12 19.2355H127.132C127.69 19.2944 128.249 19.2709 128.832 19.159C129.732 18.994 130.627 18.8586 131.498 18.7349C131.721 18.6996 131.937 18.6701 132.159 18.6407C132.622 18.5759 133.102 18.5111 133.571 18.4169C133.787 18.3756 133.985 18.2932 134.183 18.2048C134.58 18.0223 134.916 17.8868 135.252 17.7867C135.649 17.6571 136.153 17.4569 136.514 17.021C136.952 16.4969 137.096 15.9786 136.946 15.4309ZM125.997 11.102L126.123 11.0608C126.333 10.9842 126.537 10.9136 126.741 10.8429C127.246 10.6721 127.774 10.4895 128.279 10.2775C128.381 10.2304 128.477 10.2304 128.549 10.2775C128.639 10.3364 128.693 10.4718 128.693 10.6367C128.693 10.7781 128.585 10.9548 128.513 11.0726C128.189 11.6203 127.804 12.2564 127.366 12.8394C127.168 13.1163 126.891 13.2988 126.543 13.3872C126.423 13.4225 126.303 13.452 126.183 13.4814C125.81 13.5697 125.432 13.6581 125.078 13.8348C124.489 14.1351 124.062 14.4414 123.732 14.8066L123.702 14.8419L123.648 14.8949C123.486 15.0598 123.486 15.0657 123.324 14.9244C122.879 14.5592 122.495 14.3472 122.092 14.2353C122.098 14.2294 122.104 14.2294 122.11 14.2235C122.236 14.1293 122.357 14.035 122.483 13.9408L122.723 13.7641C122.945 13.5933 123.137 13.3872 123.318 13.1869C123.432 13.0632 123.552 12.9396 123.672 12.8218C123.744 12.757 123.822 12.6981 123.9 12.6392C124.062 12.5155 124.225 12.3918 124.327 12.2151C124.693 11.5614 125.33 11.3376 125.997 11.102ZM117.419 15.8196C117.648 15.8431 117.822 15.9668 117.894 16.1494C117.96 16.3261 117.912 16.5145 117.768 16.6677C117.347 17.1153 116.855 17.4097 116.302 17.5452C116.2 17.5747 116.092 17.5747 115.972 17.5805C115.918 17.5805 115.858 17.5805 115.81 17.5864C115.551 17.5864 115.209 17.5629 114.891 17.3862C114.344 17.074 114.242 16.2554 114.524 15.7548C114.674 15.4839 114.867 15.3072 115.119 15.2129C115.395 15.1128 115.696 15.048 116.014 15.0245H116.062C116.254 15.0245 116.416 15.1069 116.512 15.2659C116.711 15.5899 116.999 15.7666 117.419 15.8196ZM117.233 13.3165C117.401 13.1751 117.558 13.0868 117.714 13.022L117.816 12.9749C117.816 12.9749 118.038 12.8512 118.404 12.8512C118.428 12.8512 118.452 12.8571 118.476 12.8571C118.645 12.8807 118.813 12.8866 118.975 12.8924C119.101 12.8924 119.233 12.8924 119.359 12.9101C119.438 12.9219 119.498 12.9278 119.528 12.9337C119.528 12.9337 119.546 12.9455 119.558 12.9455C119.606 12.9572 119.768 13.0102 119.966 13.1869C120.194 13.3931 120.224 13.4696 120.254 13.5521C120.254 13.5639 120.26 13.5756 120.266 13.5815C120.441 13.7936 120.423 13.9879 120.2 14.2588C119.888 14.6299 119.48 14.8596 119.047 15.101L119.011 15.1246C118.651 15.2071 118.362 15.1835 118.35 15.1835C117.954 15.1953 117.636 15.1187 117.353 14.9597C117.113 14.8301 116.927 14.4944 116.897 14.141C116.879 13.9467 116.903 13.5815 117.233 13.3165ZM118.278 16.8444C118.434 16.5322 118.482 16.2554 118.434 15.9727C118.428 15.9432 118.428 15.9315 118.422 15.9256H118.476C118.513 15.9256 118.555 15.9315 118.591 15.9197C118.825 15.9197 118.861 15.9432 118.927 16.1435C118.975 16.279 119.011 16.4203 119.041 16.5617L119.071 16.6912C119.083 16.7266 119.077 16.756 119.023 16.7796L118.969 16.8031C118.873 16.8502 118.777 16.8974 118.681 16.9209C118.374 16.9975 118.116 17.1565 117.882 17.398L117.852 17.4274C117.78 17.504 117.714 17.5747 117.624 17.61C117.918 17.398 118.14 17.1388 118.278 16.8444ZM118.098 18.3933C118.26 17.8868 118.567 17.5747 119.035 17.451C119.089 17.4333 119.137 17.4039 119.173 17.3803C119.191 17.3626 119.227 17.3391 119.239 17.3391C119.281 17.3626 119.317 17.4156 119.353 17.4628C119.377 17.4922 119.395 17.5158 119.413 17.5393C119.648 17.822 119.954 17.9634 120.32 17.9634H120.338C120.669 17.9634 120.993 17.9398 121.239 17.9163C121.534 17.8986 121.678 17.9751 121.78 18.2166C121.858 18.4051 121.798 18.5936 121.606 18.7585C121.444 18.888 121.263 19.0529 121.107 19.2591C120.987 19.424 120.807 19.4829 120.627 19.5241C120.615 19.5241 120.609 19.53 120.603 19.53L120.026 19.6949C119.99 19.7126 119.93 19.7243 119.846 19.7479H119.822C119.335 19.8834 118.933 19.8304 118.543 19.583C118.098 19.3062 117.948 18.8939 118.098 18.3933ZM120.032 17.1153C119.75 16.9739 119.672 16.4498 119.642 16.2495V16.1847C119.606 16.0198 119.504 15.6723 119.498 15.6664C119.498 15.6547 119.498 15.6488 119.498 15.6429C119.51 15.6134 119.576 15.5663 119.606 15.5428L119.642 15.5074C119.924 15.2542 120.272 14.995 120.741 14.9302C120.903 14.9067 121.059 14.8478 121.203 14.7948C121.275 14.7653 121.348 14.7418 121.42 14.7182C121.54 14.677 121.642 14.677 121.726 14.7064C122.17 14.8713 122.669 15.0951 123.047 15.5133C123.186 15.6664 123.252 15.8255 123.24 15.9786C123.228 16.1376 123.137 16.2848 122.969 16.4262C122.903 16.4792 122.831 16.5322 122.765 16.5793C122.705 16.6264 122.651 16.6736 122.591 16.7207C122.363 16.8974 122.122 17.0093 121.87 17.0505C120.903 17.2154 120.284 17.239 120.038 17.1153H120.032ZM122.14 18.6996C122.158 18.623 122.188 18.5405 122.23 18.464C122.303 18.3403 122.381 18.1813 122.381 17.9869C122.381 17.8927 122.363 17.7926 122.315 17.6866C122.477 17.5688 122.633 17.4569 122.789 17.3332C122.855 17.2861 122.927 17.2684 122.999 17.292C123.107 17.3155 123.186 17.3862 123.222 17.4981C123.222 17.4981 123.282 17.61 123.288 17.8102C123.288 18.0105 123.234 18.1636 123.125 18.2578C123.113 18.2637 123.107 18.2696 123.095 18.2755C123.095 18.2755 123.077 18.2932 123.065 18.2991C122.999 18.3462 122.933 18.3992 122.867 18.4463C122.699 18.5818 122.531 18.7055 122.327 18.7467L122.2 18.7644C122.152 18.7761 122.14 18.7585 122.14 18.7585C122.14 18.7585 122.128 18.7467 122.14 18.6996ZM120.729 7.74496C120.729 7.74496 120.759 7.72141 120.765 7.70963L121.384 6.95576L121.492 6.84975L122.309 6.07822C122.477 5.89564 122.657 5.72484 122.837 5.55993C123.035 5.38325 123.234 5.19478 123.414 4.99453C123.642 4.74128 123.876 4.49392 124.11 4.25245C124.207 4.15233 124.303 4.04631 124.399 3.94619C124.627 3.70472 124.807 3.44558 124.945 3.18055C125.09 2.89785 125.552 2.63282 125.882 2.65049C125.93 2.65638 125.96 2.67404 125.997 2.73294C126.195 3.03331 126.291 3.3219 126.291 3.62226C126.291 3.8284 126.249 4.02276 126.165 4.20533C125.798 5.04754 125.528 5.93687 125.27 6.79674C125.216 6.96754 125.162 7.13834 125.114 7.30914C124.711 8.61073 124.207 10.142 123.534 11.585C123.27 12.1621 123.011 12.6745 122.579 13.0868C122.423 13.2399 122.242 13.4107 122.038 13.5344C121.756 13.6993 121.474 13.8996 121.203 14.1351C121.071 14.2471 120.915 14.2706 120.741 14.2942C120.759 14.2294 120.783 14.1705 120.813 14.1116C121.035 13.5815 120.939 13.2164 120.483 12.8571C120.194 12.6333 119.882 12.4036 119.468 12.3565C119.347 12.3388 119.257 12.2505 119.179 12.0679C118.987 11.6262 118.939 11.1727 119.035 10.731C119.239 9.80631 119.678 8.96411 120.326 8.22791C120.423 8.12779 120.507 8.01588 120.573 7.90398C120.615 7.83331 120.669 7.77441 120.729 7.74496ZM117.353 7.98644C117.353 7.84509 117.365 7.70374 117.365 7.56239C117.377 7.48582 117.431 7.11478 117.491 6.77907L117.521 6.5965C117.636 5.97809 117.75 5.39503 118.152 4.90619C118.404 4.59993 118.711 4.35846 119.065 4.19355C119.179 4.13466 119.359 4.09343 119.576 4.34079C119.726 4.51748 119.852 4.72361 119.942 4.96509C120.098 5.37736 120.248 5.78963 120.399 6.20779L120.525 6.56705C120.603 6.76729 120.573 6.90864 120.435 7.05588C120.02 7.50938 119.504 8.07478 119.125 8.70496C118.639 9.52361 118.368 10.2363 118.278 10.943C118.212 11.4495 118.284 11.9207 118.501 12.3271C118.507 12.3447 118.519 12.3624 118.519 12.3742H118.482C118.398 12.3683 118.32 12.3801 118.23 12.3859C118.194 12.3918 118.158 12.3918 118.098 12.4036C118.056 12.4095 118.044 12.4095 118.044 12.4095C118.044 12.4095 118.032 12.3859 118.032 12.3212C118.032 11.8382 117.948 11.3671 117.774 10.8782C117.521 10.1774 117.425 9.43527 117.359 8.7992C117.335 8.53417 117.347 8.25147 117.359 7.98644H117.353ZM106.728 12.2151C106.542 12.0561 106.368 11.8677 106.217 11.6556C106.133 11.5496 106.103 11.4613 106.127 11.3906C106.145 11.3199 106.223 11.2551 106.356 11.1963C106.902 10.9783 107.491 10.8547 108.115 10.8429C108.157 10.8429 108.194 10.837 108.23 10.837C108.884 10.837 109.575 10.9783 110.374 11.261C110.506 11.3082 110.632 11.3553 110.758 11.3965C111.101 11.5143 111.455 11.6321 111.785 11.8029C112.23 12.0208 112.632 12.3212 113.017 12.6097C113.101 12.6745 113.179 12.7334 113.263 12.7923C113.341 12.8512 113.425 12.916 113.503 12.9749C113.671 13.1045 113.846 13.234 114.026 13.3518C114.374 13.5874 114.747 13.7111 115.143 13.7229H115.371C115.539 13.7347 115.714 13.7347 115.888 13.7347C115.99 13.7347 116.08 13.6875 116.122 13.611C116.164 13.5403 116.158 13.4402 116.098 13.3459C116.008 13.1987 115.87 13.1104 115.708 13.1045C114.783 13.0515 114.17 12.4978 113.641 11.9089C113.251 11.479 112.963 10.9724 112.68 10.4777L112.632 10.3953C112.272 9.76509 111.863 9.14079 111.473 8.54006C111.353 8.35748 111.233 8.1749 111.113 7.98644C110.95 7.73318 110.824 7.47993 110.74 7.23257C110.56 6.67895 110.314 6.143 110.074 5.63061C109.983 5.44214 109.893 5.24779 109.809 5.05932C109.659 4.72361 109.533 4.37613 109.413 4.03453L109.305 3.7165C109.173 3.35723 109.088 2.99797 108.998 2.59159C108.896 2.14987 108.854 1.67871 108.866 1.14864C108.866 1.04263 108.884 0.954289 108.92 0.871835C108.956 0.783492 108.986 0.765823 109.004 0.759933C109.016 0.759933 109.046 0.759933 109.125 0.80705C109.341 0.94251 109.551 1.11331 109.749 1.27233C109.821 1.33122 109.893 1.39012 109.959 1.44901C111.233 2.46791 112.164 3.29834 112.969 4.15822C113.653 4.87674 114.332 5.68361 115.125 6.69073C115.996 7.80975 116.488 9.07012 116.861 10.1597C116.909 10.301 116.957 10.4424 117.011 10.5778C117.143 10.9312 117.281 11.2964 117.335 11.6733C117.359 11.8618 117.383 12.062 117.371 12.2682C117.353 12.5921 117.203 12.8277 116.933 12.9631C116.314 13.2812 116.278 13.8407 116.308 14.2294V14.2647C116.314 14.3236 116.32 14.3825 116.314 14.3943C116.302 14.4061 116.224 14.4237 116.164 14.4296C115.491 14.5474 114.963 14.73 114.506 15.0127C114.398 15.0716 114.326 15.1423 114.266 15.2247C114.14 15.4132 113.948 15.5133 113.683 15.5251C113.197 15.5486 112.758 15.5074 112.35 15.3896C112.176 15.3366 112.008 15.2895 111.833 15.2424C111.473 15.1423 111.101 15.0363 110.74 14.9185C110.116 14.7064 109.497 14.359 108.836 13.8583L108.464 13.5815C107.887 13.1457 107.287 12.6922 106.728 12.2151ZM109.1 17.6159C108.578 17.6041 108.188 17.2978 107.863 17.0151C107.863 17.0151 107.851 17.0034 107.845 17.0034C107.671 16.8267 107.19 16.6205 106.806 16.4674C106.8 16.4674 106.788 16.4615 106.782 16.4615C106.626 16.4262 106.476 16.3791 106.326 16.3084C106.109 16.2024 105.869 16.1023 105.593 16.0021C105.509 15.9727 105.455 15.9374 105.443 15.902C105.425 15.8667 105.443 15.8019 105.485 15.7194C105.647 15.4014 105.917 15.154 106.362 14.9185C106.626 14.783 106.926 14.7064 107.19 14.7064H107.263C107.575 14.7064 107.785 14.7477 107.965 14.8537C108.32 15.0539 108.71 15.1364 109.088 15.2071L109.203 15.2306C109.485 15.2895 109.755 15.4073 110.013 15.5192C110.092 15.5545 110.176 15.5899 110.254 15.6193C111.233 16.0316 112.29 16.2613 113.395 16.3084H113.449C113.449 16.3084 113.491 16.3084 113.503 16.3143C113.551 16.3261 113.599 16.3202 113.647 16.3143C113.731 16.3084 113.737 16.3143 113.749 16.3496C113.81 16.5028 113.749 16.7089 113.641 16.7972C113.521 16.8915 113.371 16.9091 113.209 16.9268H113.161C112.83 16.9739 112.554 17.0446 112.308 17.1388C111.972 17.2743 111.635 17.4039 111.299 17.5334C111.035 17.6336 110.776 17.7396 110.512 17.8397C110.452 17.8632 110.422 17.8691 110.392 17.8574C109.971 17.6689 109.521 17.6277 109.1 17.6159ZM111.437 22.0272C110.53 22.7752 109.761 23.6586 109.125 24.4183C108.722 24.9131 108.272 25.3666 107.845 25.7788C107.515 26.0969 107.257 26.4149 107.064 26.7447C106.95 26.9332 106.806 27.0156 106.602 26.9921C106.043 26.9391 105.917 26.8802 105.797 26.3619C105.725 26.0321 105.707 25.6964 105.701 25.2959C105.677 24.7658 105.869 24.1769 106.043 23.7234C106.5 22.4983 107.299 21.3675 108.47 20.2544C109.455 19.3239 110.44 18.6524 111.485 18.1872C112.182 17.8809 112.782 17.7219 113.371 17.6866C113.431 17.6866 113.503 17.6866 113.569 17.6512C113.629 17.6218 113.683 17.61 113.743 17.61C113.858 17.61 113.972 17.6689 114.122 17.8044C114.2 17.875 114.29 17.9516 114.29 17.981C114.29 18.0105 114.194 18.1047 114.122 18.1695C113.858 18.4228 113.635 18.7055 113.467 19.0058C113.119 19.6301 113.179 20.0895 113.671 20.5901C113.701 20.6196 113.707 20.6313 113.713 20.6372C113.707 20.6372 113.701 20.649 113.671 20.6726C113.593 20.7256 113.503 20.7727 113.389 20.8139C112.62 21.0907 111.978 21.5855 111.437 22.0272ZM114.65 28.0522C114.554 28.1641 114.464 28.2878 114.38 28.4056C114.338 28.4645 114.296 28.5234 114.248 28.5823C113.822 29.1418 113.377 29.6483 112.921 30.1018C112.861 30.1607 112.788 30.2196 112.698 30.2844C112.53 30.3963 112.476 30.3904 112.356 30.2313C112.2 30.0311 112.104 29.7896 112.062 29.4951C112.008 29.1536 111.996 28.8002 111.978 28.4586C111.966 28.2112 111.954 27.9639 111.93 27.7165C111.887 27.1334 111.905 26.5327 111.984 25.9261C112.008 25.7199 112.032 25.5138 112.056 25.3018C112.122 24.6716 112.194 24.0178 112.374 23.3936C112.554 22.781 112.776 22.3217 113.089 21.9506C113.233 21.768 113.389 21.6561 113.569 21.5972C113.912 21.4912 114.17 21.2792 114.41 21.0731C114.512 20.9788 114.602 20.9376 114.698 20.9376C114.728 20.9376 114.759 20.9435 114.795 20.9553C114.891 20.9788 114.903 21.0201 114.891 21.0848C114.885 21.1202 114.879 21.1555 114.873 21.1909C114.867 21.2498 114.855 21.3086 114.837 21.3675C114.692 21.8623 114.638 22.3629 114.602 22.9636C114.566 23.6232 114.548 24.1651 114.548 24.6716C114.554 25.449 114.662 26.1852 114.867 26.8625C115.017 27.3455 114.951 27.7106 114.65 28.0522ZM115.095 20.1661C114.741 20.0188 114.392 19.8657 114.044 19.7185C113.894 19.6596 113.852 19.5948 113.852 19.5771C113.882 19.0529 114.41 18.3815 114.963 18.3698L115.329 18.358C115.551 18.3462 115.768 18.3403 115.984 18.3344C116.116 18.3285 116.26 18.3403 116.38 18.3992C116.47 18.4404 116.548 18.4522 116.621 18.4228C116.705 18.3933 116.765 18.3285 116.813 18.2166L116.831 18.1695C116.849 18.1224 116.867 18.0694 116.891 18.0223C116.897 18.0046 116.903 18.0046 116.909 18.0105C116.909 18.1342 116.933 18.2284 116.999 18.2932C117.059 18.3639 117.155 18.3933 117.281 18.3874C117.191 18.7702 117.317 19.1177 117.431 19.4299C117.455 19.4947 117.473 19.5712 117.485 19.6419L117.497 19.7067L117.503 19.7302C117.497 19.7361 117.491 19.742 117.485 19.7479C117.347 19.9423 116.915 20.0954 116.59 20.1661C116.584 20.1661 116.572 20.172 116.56 20.172C116.446 20.2191 116.308 20.2426 116.11 20.2426C115.467 20.3369 115.311 20.2544 115.305 20.2544C115.293 20.2367 115.275 20.225 115.251 20.2191C115.221 20.2132 115.173 20.1955 115.095 20.1661ZM117.702 25.0897C117.323 26.038 116.783 26.8802 116.086 27.5928C116.08 27.5928 116.068 27.6105 116.068 27.6105C116.044 27.6282 116.026 27.6517 116.002 27.6694C115.978 27.6988 115.924 27.7459 115.912 27.7518C115.882 27.7342 115.864 27.7106 115.852 27.6812C115.852 27.6635 115.852 27.6694 115.84 27.6576C115.726 27.422 115.581 26.8095 115.533 26.621C115.341 25.8318 115.251 25.0309 115.275 24.2417C115.281 24.0473 115.281 23.8529 115.281 23.6586C115.281 23.3405 115.281 23.0166 115.305 22.6986C115.347 22.1626 115.491 21.6385 115.617 21.2439C115.678 21.0613 115.75 21.0201 116.014 21.0201H116.098C116.224 21.0318 116.362 21.0377 116.38 21.0554C116.392 21.0731 116.386 21.1614 116.386 21.238C116.38 21.2792 116.38 21.3263 116.38 21.3734C116.356 22.2274 116.687 22.9754 117.035 23.6763C117.041 23.6939 117.053 23.7175 117.065 23.7351C117.095 23.7764 117.119 23.8176 117.131 23.8647C117.191 24.065 117.335 24.1886 117.449 24.2711C117.768 24.5008 117.84 24.7364 117.702 25.0897ZM118.705 22.8576L118.651 22.9754C118.525 23.2581 118.392 23.5467 118.194 23.794C118.14 23.8647 118.074 23.9001 118.014 23.9001H118.002C117.942 23.8942 117.888 23.8529 117.852 23.7823C117.521 23.1403 117.179 22.4748 117.035 21.7386C116.933 21.1909 117.047 20.8139 117.413 20.5253C117.479 20.4723 117.539 20.4193 117.6 20.3663C117.654 20.3133 117.702 20.2662 117.762 20.2191C117.81 20.1837 117.852 20.1661 117.9 20.1661C117.942 20.1661 117.99 20.1837 118.032 20.225C118.194 20.3722 118.374 20.4605 118.609 20.5018C118.837 20.543 118.969 20.6961 119.005 20.9612C119.017 21.0672 119.029 21.185 119.035 21.2969C119.041 21.3558 119.047 21.4205 119.047 21.4736C119.071 21.9918 118.891 22.463 118.705 22.8576ZM125.288 28.2112L125.312 28.3172C125.39 28.6471 125.462 28.9533 125.498 29.2537C125.498 29.395 125.456 29.501 125.378 29.5599C125.306 29.607 125.21 29.6129 125.096 29.5776C124.753 29.4657 124.393 29.342 123.948 29.183C123.732 29.1064 123.534 28.9828 123.294 28.7825C123.077 28.594 122.849 28.4174 122.627 28.2407C122.182 27.8932 121.726 27.528 121.342 27.0981C120.639 26.2971 120.02 25.5609 119.54 24.701C119.419 24.4772 119.347 24.2358 119.269 23.9825C119.227 23.8235 119.179 23.6586 119.113 23.5055C119.095 23.4407 119.131 23.3641 119.155 23.3288C119.57 22.6574 119.726 21.8858 119.66 20.8375C119.642 20.5548 119.678 20.5077 119.972 20.4429C120.08 20.4134 120.194 20.3958 120.308 20.3722C120.393 20.3604 120.483 20.3428 120.567 20.3251C120.771 20.2839 120.945 20.1837 121.119 20.0836L121.191 20.0483C121.191 20.0483 121.215 20.0306 121.221 20.0306C121.221 20.0306 121.221 20.0345 121.221 20.0424C121.354 20.5842 121.678 21.0201 121.996 21.4382L122.044 21.5089C122.218 21.7327 122.381 21.9447 122.513 22.1803C122.561 22.2628 122.615 22.3452 122.705 22.3982C123.228 22.7045 123.48 23.2051 123.744 23.7293C124.363 24.9602 124.837 26.3442 125.282 28.2112H125.288ZM127.228 20.3251C127.228 20.3251 127.228 20.331 127.24 20.3369C127.552 20.6902 127.84 21.0731 128.111 21.45L128.285 21.6797C128.705 22.2569 129.084 22.7045 129.462 23.0873C129.54 23.1639 129.564 23.1992 129.564 23.1992C129.552 23.2228 129.444 23.2699 129.408 23.2875C129.054 23.4642 128.663 23.5055 128.195 23.5113H128.159C126.687 23.5113 125.408 23.2051 124.243 22.5867C123.804 22.3511 123.306 22.0861 122.903 21.7032C122.765 21.5678 122.675 21.4029 122.573 21.2321C122.513 21.1378 122.459 21.0377 122.387 20.9435C122.273 20.7845 122.17 20.6196 122.062 20.4547C122.002 20.3604 121.942 20.2721 121.882 20.1778C121.804 20.0659 121.75 19.9305 121.72 19.7774C121.684 19.5712 121.75 19.4593 121.942 19.3945C122.044 19.3592 122.146 19.3415 122.236 19.3415C122.591 19.3239 122.927 19.2002 123.288 18.9587C123.306 18.9469 123.324 18.9352 123.336 18.9234L123.402 18.8586C123.432 18.835 123.546 18.7761 123.918 18.7761C124.02 18.7761 124.147 18.782 124.297 18.7938H124.321C124.963 18.7997 125.492 18.8586 125.984 19.1059C126.117 19.1707 126.237 19.2591 126.357 19.3474C126.417 19.3945 126.483 19.4417 126.555 19.4947L126.585 19.53C126.958 19.9894 127.174 20.2603 127.228 20.3251ZM136.147 16.3202C135.943 16.6323 135.661 16.8738 135.306 17.0328C134.165 17.5334 133.144 17.875 132.177 18.0753C131.691 18.1754 131.186 18.2343 130.682 18.2461C129.997 18.2696 129.342 18.4169 128.735 18.5759C128.207 18.7113 127.678 18.6583 127.228 18.5936C126.729 18.5288 126.237 18.3992 125.756 18.2814C125.48 18.2107 125.21 18.1401 124.933 18.0812C124.819 18.0576 124.699 18.034 124.585 18.0105C124.453 17.981 124.315 17.9516 124.183 17.9221C124.008 17.8809 123.924 17.7867 123.918 17.6277C123.912 17.3567 123.864 16.9739 123.492 16.7089C123.486 16.703 123.468 16.6912 123.468 16.6794C123.462 16.6677 123.474 16.6441 123.492 16.6264C123.72 16.3614 123.762 16.0316 123.774 15.7489C123.774 15.5604 123.852 15.4309 124.014 15.319C124.129 15.2424 124.237 15.1599 124.351 15.0775C124.507 14.9538 124.669 14.8301 124.831 14.73C125.486 14.3354 126.225 14.1528 126.867 14.0232C127.234 13.9467 127.6 13.9113 127.961 13.9055C128.339 13.9467 128.723 13.9644 129.096 13.9761C129.817 14.0056 130.561 14.035 131.264 14.2588C131.637 14.3707 132.015 14.3943 132.381 14.412C132.549 14.4237 132.724 14.4296 132.892 14.4473C133.246 14.4885 133.607 14.5651 133.949 14.6358C134.087 14.6652 134.225 14.6947 134.357 14.7182C134.405 14.73 134.454 14.7477 134.49 14.7771C134.904 15.0716 135.354 15.2247 135.829 15.3778C136.063 15.4544 136.219 15.5722 136.279 15.7312C136.34 15.8961 136.291 16.0964 136.147 16.3202Z" fill="#282828"/>
<path d="M128.664 10.6192C128.658 10.7606 128.561 10.9372 128.489 11.055C128.159 11.6028 127.775 12.2388 127.336 12.8219C127.138 13.0987 126.862 13.2813 126.513 13.3696C126.393 13.405 126.273 13.4344 126.153 13.4639C125.786 13.5522 125.402 13.6406 125.048 13.8172C124.465 14.1176 124.033 14.4239 123.702 14.789L123.672 14.8244C123.672 14.8244 123.642 14.8597 123.618 14.8774C123.456 15.0423 123.456 15.0482 123.294 14.9068C122.849 14.5417 122.465 14.3296 122.062 14.2177C122.062 14.2118 122.075 14.2118 122.081 14.206C122.207 14.1117 122.333 14.0175 122.453 13.9233L122.693 13.7466C122.921 13.5758 123.108 13.3696 123.294 13.1694C123.402 13.0457 123.522 12.922 123.642 12.8042C123.714 12.7395 123.792 12.6806 123.87 12.6217C124.033 12.498 124.201 12.3743 124.297 12.1976C124.663 11.5439 125.3 11.3201 125.973 11.0845L126.099 11.0433C126.303 10.9667 126.507 10.896 126.711 10.8253C127.222 10.6545 127.745 10.472 128.249 10.2599C128.351 10.2128 128.447 10.2128 128.519 10.2599C128.609 10.3188 128.664 10.4543 128.664 10.6192Z" fill="#EFEDE4"/>
<path d="M136.124 16.3024C135.913 16.6146 135.631 16.856 135.277 17.0151C134.141 17.5157 133.114 17.8573 132.147 18.0575C131.661 18.1576 131.156 18.2165 130.652 18.2283C129.967 18.2519 129.312 18.3991 128.706 18.5581C128.177 18.6936 127.648 18.6406 127.198 18.5758C126.699 18.511 126.207 18.3814 125.726 18.2636C125.45 18.193 125.18 18.1223 124.904 18.0634C124.789 18.0398 124.675 18.0163 124.555 17.9927C124.423 17.9633 124.285 17.9338 124.153 17.9044C123.979 17.8632 123.894 17.7689 123.888 17.6099C123.882 17.339 123.834 16.9562 123.462 16.6911C123.462 16.6852 123.438 16.6735 123.438 16.6617C123.438 16.6499 123.444 16.6263 123.462 16.6087C123.696 16.3436 123.732 16.0138 123.744 15.7311C123.75 15.5427 123.828 15.4131 123.985 15.3012C124.099 15.2246 124.213 15.1422 124.321 15.0597C124.477 14.936 124.639 14.8124 124.807 14.7122C125.456 14.3176 126.201 14.1351 126.838 14.0055C127.204 13.9289 127.576 13.8936 127.931 13.8877C128.309 13.9289 128.694 13.9466 129.066 13.9584C129.787 13.9878 130.532 14.0173 131.234 14.2411C131.613 14.353 131.985 14.3765 132.351 14.3942C132.52 14.406 132.694 14.4119 132.862 14.4295C133.216 14.4708 133.577 14.5473 133.919 14.618C134.057 14.6474 134.195 14.6769 134.328 14.7005C134.376 14.7122 134.424 14.7299 134.46 14.7594C134.874 15.0538 135.331 15.207 135.799 15.3601C136.033 15.4367 136.19 15.5544 136.25 15.7135C136.31 15.8784 136.268 16.0786 136.124 16.3024Z" fill="white"/>
<path d="M129.54 23.1814C129.54 23.1814 129.414 23.252 129.378 23.2697C129.024 23.4464 128.633 23.4876 128.165 23.4935H128.129C126.657 23.4935 125.378 23.1873 124.213 22.5689C123.774 22.3333 123.276 22.0682 122.873 21.6854C122.735 21.55 122.645 21.385 122.543 21.2143C122.489 21.12 122.429 21.0199 122.363 20.9257C122.249 20.7666 122.14 20.6017 122.032 20.4368C121.972 20.3426 121.912 20.2543 121.852 20.16C121.774 20.0481 121.72 19.9127 121.696 19.7595C121.66 19.5534 121.726 19.4415 121.912 19.3767C122.014 19.3414 122.116 19.3237 122.207 19.3237C122.561 19.306 122.897 19.1823 123.258 18.9409C123.282 18.9291 123.294 18.9173 123.306 18.9055L123.324 18.8879L123.372 18.8408C123.372 18.8408 123.516 18.7583 123.888 18.7583C123.99 18.7583 124.117 18.7642 124.267 18.776H124.291C124.933 18.7819 125.462 18.8408 125.961 19.0881C126.093 19.1529 126.207 19.2412 126.327 19.3296C126.393 19.3767 126.453 19.4238 126.525 19.4768L126.555 19.5122C126.928 19.9716 127.144 20.2425 127.198 20.3073C127.204 20.3073 127.204 20.3131 127.21 20.319C127.522 20.6724 127.81 21.0552 128.081 21.4322L128.255 21.6619C128.675 22.239 129.054 22.6866 129.432 23.0695C129.51 23.146 129.534 23.1814 129.54 23.1814Z" fill="#F4F4F4"/>
<path d="M125.468 29.2358C125.468 29.3771 125.426 29.4831 125.348 29.542C125.276 29.5891 125.18 29.595 125.066 29.5597C124.723 29.4478 124.363 29.3241 123.919 29.1651C123.702 29.0885 123.504 28.9648 123.264 28.7646C123.048 28.5761 122.819 28.3994 122.603 28.2228C122.153 27.8753 121.696 27.5101 121.312 27.0802C120.609 26.2792 119.99 25.543 119.51 24.6831C119.39 24.4593 119.318 24.2178 119.246 23.9646C119.198 23.8056 119.15 23.6407 119.089 23.4875C119.065 23.4228 119.101 23.3462 119.126 23.3109C119.546 22.6394 119.702 21.8679 119.63 20.8196C119.612 20.5369 119.648 20.4898 119.942 20.425C120.05 20.3955 120.165 20.3778 120.279 20.3543C120.363 20.3425 120.453 20.3248 120.537 20.3072C120.741 20.2659 120.921 20.1658 121.09 20.0657L121.162 20.0304C121.162 20.0304 121.186 20.0127 121.192 20.0127C121.192 20.0186 121.198 20.0186 121.198 20.0245C121.33 20.5663 121.654 21.0021 121.973 21.4203L122.021 21.491C122.195 21.7148 122.357 21.9268 122.489 22.1624C122.537 22.2448 122.591 22.3273 122.681 22.3803C123.204 22.6866 123.456 23.1872 123.72 23.7113C124.345 24.9423 124.814 26.3263 125.258 28.1933L125.282 28.2993C125.36 28.6291 125.432 28.9354 125.468 29.2358Z" fill="#F4F4F4"/>
<path d="M119.023 21.4559C119.041 21.9742 118.861 22.4454 118.675 22.84L118.621 22.9578C118.495 23.2405 118.363 23.5291 118.164 23.7764C118.116 23.8471 118.05 23.8824 117.984 23.8824H117.972C117.912 23.8765 117.858 23.8353 117.822 23.7646C117.492 23.1227 117.149 22.4572 117.011 21.721C116.903 21.1732 117.017 20.7963 117.384 20.5077C117.45 20.4547 117.51 20.4017 117.57 20.3487C117.624 20.2957 117.678 20.2486 117.732 20.2014C117.78 20.1661 117.828 20.1484 117.87 20.1484C117.918 20.1484 117.96 20.1661 118.002 20.2073C118.164 20.3546 118.351 20.4429 118.579 20.4841C118.813 20.5254 118.939 20.6785 118.975 20.9435C118.993 21.0495 118.999 21.1673 119.005 21.2792C119.011 21.3381 119.017 21.4029 119.023 21.4559Z" fill="#EFEDE4"/>
<path d="M117.672 25.0721C117.299 26.0204 116.753 26.8626 116.056 27.5752C116.05 27.5752 116.038 27.5929 116.038 27.5929C116.014 27.6105 115.996 27.6341 115.978 27.6518C115.948 27.6812 115.9 27.7283 115.888 27.7342C115.852 27.7166 115.834 27.693 115.828 27.6635C115.822 27.6459 115.828 27.6518 115.816 27.64C115.695 27.4044 115.551 26.7919 115.509 26.6034C115.311 25.8142 115.221 25.0132 115.245 24.224C115.251 24.0297 115.251 23.8353 115.251 23.641C115.251 23.3229 115.251 22.999 115.275 22.681C115.317 22.145 115.467 21.6208 115.587 21.2262C115.647 21.0437 115.72 21.0024 115.984 21.0024H116.068C116.2 21.0142 116.332 21.0201 116.35 21.0378C116.362 21.0554 116.356 21.1438 116.356 21.2204C116.35 21.2616 116.35 21.3087 116.35 21.3558C116.326 22.2098 116.657 22.9578 117.005 23.6586C117.017 23.6763 117.029 23.6999 117.041 23.7175C117.065 23.7588 117.089 23.8 117.101 23.8471C117.161 24.0474 117.305 24.171 117.425 24.2535C117.744 24.4832 117.816 24.7188 117.672 25.0721Z" fill="white"/>
<path d="M114.621 28.0345C114.525 28.1464 114.434 28.2701 114.35 28.3879C114.308 28.4468 114.266 28.5057 114.224 28.5646C113.798 29.1241 113.347 29.6306 112.891 30.0841C112.831 30.143 112.759 30.2019 112.669 30.2667C112.506 30.3786 112.446 30.3727 112.326 30.2137C112.17 30.0134 112.074 29.7719 112.032 29.4775C111.984 29.1359 111.966 28.7825 111.948 28.4409C111.936 28.1935 111.924 27.9462 111.9 27.6988C111.864 27.1157 111.876 26.515 111.954 25.9084C111.978 25.7023 112.002 25.4961 112.026 25.2841C112.092 24.6539 112.164 24.0002 112.344 23.3759C112.524 22.7634 112.747 22.304 113.059 21.9329C113.203 21.7504 113.359 21.6384 113.54 21.5796C113.882 21.4735 114.14 21.2615 114.38 21.0554C114.483 20.9611 114.573 20.9199 114.669 20.9199C114.699 20.9199 114.735 20.9258 114.765 20.9376C114.867 20.9611 114.873 21.0024 114.867 21.0672C114.855 21.1025 114.849 21.1378 114.843 21.1732C114.837 21.2321 114.825 21.291 114.807 21.3499C114.663 21.8446 114.609 22.3452 114.573 22.9459C114.537 23.6056 114.519 24.1474 114.519 24.6539C114.519 25.4313 114.633 26.1675 114.837 26.8448C114.987 27.3278 114.921 27.6929 114.621 28.0345Z" fill="#F4F4F4"/>
<path d="M113.437 18.9881C113.089 19.6124 113.149 20.0718 113.647 20.5724C113.672 20.6019 113.678 20.6136 113.684 20.6195C113.678 20.6195 113.672 20.6313 113.641 20.6549C113.563 20.7079 113.473 20.755 113.359 20.7962C112.59 21.073 111.948 21.5677 111.407 22.0095C110.5 22.7574 109.731 23.6409 109.101 24.4006C108.692 24.8954 108.242 25.3488 107.815 25.7611C107.485 26.0792 107.233 26.3972 107.034 26.727C106.92 26.9155 106.776 26.9979 106.572 26.9744C106.013 26.9214 105.893 26.8625 105.767 26.3442C105.695 26.0144 105.677 25.6787 105.671 25.2782C105.647 24.7481 105.839 24.1592 106.013 23.7057C106.476 22.4806 107.269 21.3498 108.44 20.2367C109.425 19.3061 110.41 18.6347 111.455 18.1695C112.152 17.8632 112.753 17.7042 113.341 17.6688C113.407 17.6688 113.473 17.6688 113.539 17.6335C113.599 17.6041 113.654 17.5923 113.714 17.5923C113.828 17.5923 113.942 17.6512 114.092 17.7866C114.17 17.8573 114.26 17.9339 114.266 17.9633C114.266 17.9869 114.164 18.087 114.098 18.1518C113.828 18.405 113.605 18.6877 113.437 18.9881Z" fill="white"/>
<path d="M113.611 16.7793C113.491 16.8735 113.341 16.8912 113.179 16.9088H113.131C112.801 16.956 112.524 17.0266 112.278 17.1209C111.942 17.2563 111.605 17.3859 111.269 17.5155C111.011 17.6156 110.746 17.7216 110.482 17.8217C110.428 17.8453 110.392 17.8512 110.362 17.8394C109.948 17.6509 109.497 17.6097 109.071 17.5979C108.548 17.5861 108.158 17.2799 107.839 16.9972C107.833 16.9972 107.821 16.9854 107.815 16.9854C107.641 16.8087 107.161 16.6026 106.776 16.4495C106.77 16.4495 106.758 16.4436 106.752 16.4436C106.602 16.4082 106.446 16.3611 106.302 16.2904C106.079 16.1844 105.839 16.0843 105.563 15.9842C105.479 15.9547 105.425 15.9194 105.413 15.8841C105.395 15.8487 105.413 15.7839 105.455 15.7015C105.617 15.3834 105.887 15.1361 106.332 14.9005C106.596 14.765 106.896 14.6885 107.161 14.6885H107.233C107.551 14.6885 107.755 14.7297 107.935 14.8357C108.29 15.036 108.68 15.1184 109.059 15.1891L109.173 15.2126C109.455 15.2715 109.725 15.3893 109.984 15.5012C110.062 15.5366 110.146 15.5719 110.224 15.6014C111.203 16.0136 112.26 16.2433 113.365 16.2904H113.419C113.419 16.2904 113.461 16.2904 113.473 16.2963C113.521 16.3081 113.575 16.3022 113.617 16.2963C113.702 16.2904 113.708 16.2963 113.726 16.3317C113.78 16.4848 113.726 16.6909 113.611 16.7793Z" fill="#EFEDE4"/>
<path d="M126.261 3.60445C126.261 3.81059 126.219 4.00494 126.141 4.18752C125.768 5.02973 125.498 5.91905 125.24 6.77893C125.186 6.94973 125.138 7.12053 125.084 7.29132C124.681 8.59292 124.177 10.1242 123.51 11.5672C123.24 12.1443 122.981 12.6567 122.549 13.069C122.393 13.2221 122.213 13.3929 122.008 13.5166C121.726 13.6815 121.444 13.8818 121.173 14.1173C121.041 14.2292 120.885 14.2528 120.711 14.2764C120.729 14.2116 120.759 14.1527 120.783 14.0938C121.005 13.5637 120.915 13.1986 120.453 12.8393C120.17 12.6155 119.852 12.3858 119.438 12.3387C119.317 12.321 119.227 12.2327 119.149 12.0501C118.957 11.6084 118.909 11.1549 119.005 10.7132C119.209 9.7885 119.648 8.94629 120.302 8.2101C120.399 8.10997 120.477 7.99807 120.543 7.88617C120.591 7.8155 120.645 7.7566 120.705 7.72715C120.717 7.71537 120.729 7.70359 120.735 7.69181L121.36 6.93795C121.39 6.90261 121.426 6.86727 121.462 6.83194L122.279 6.0604C122.447 5.87783 122.627 5.70703 122.807 5.54212C123.005 5.36543 123.204 5.17697 123.384 4.97672C123.612 4.72347 123.846 4.47611 124.08 4.23464C124.177 4.13451 124.273 4.0285 124.369 3.92838C124.597 3.68691 124.777 3.42776 124.915 3.16273C125.06 2.88003 125.522 2.615 125.858 2.63267C125.906 2.63856 125.93 2.65623 125.967 2.71513C126.165 3.01549 126.261 3.30408 126.261 3.60445Z" fill="white"/>
<path d="M120.405 7.03806C119.99 7.49155 119.474 8.05695 119.095 8.68714C118.609 9.50579 118.338 10.2184 118.248 10.9252C118.182 11.4317 118.254 11.9028 118.471 12.3092C118.483 12.3269 118.489 12.3446 118.489 12.3563H118.453C118.368 12.3505 118.29 12.3622 118.206 12.3681C118.164 12.374 118.128 12.374 118.068 12.3858C118.032 12.3917 118.014 12.3917 118.014 12.3917C118.014 12.3917 118.002 12.3681 118.002 12.3033C118.002 11.8204 117.918 11.3492 117.744 10.8604C117.492 10.1595 117.395 9.41744 117.335 8.78137C117.311 8.51634 117.317 8.23364 117.329 7.96861C117.329 7.82726 117.335 7.68591 117.335 7.54456C117.347 7.468 117.401 7.09695 117.461 6.76125L117.492 6.57867C117.612 5.96027 117.72 5.3772 118.122 4.88836C118.374 4.58211 118.681 4.34063 119.035 4.17573C119.149 4.11683 119.329 4.0756 119.546 4.32297C119.696 4.49965 119.822 4.70579 119.912 4.94726C120.068 5.35953 120.218 5.7718 120.369 6.18996L120.495 6.54922C120.573 6.74947 120.549 6.89082 120.405 7.03806Z" fill="#F4F4F4"/>
<path d="M117.341 12.2504C117.323 12.5743 117.173 12.8099 116.903 12.9454C116.284 13.2634 116.248 13.8229 116.278 14.2116V14.247C116.284 14.3059 116.29 14.3648 116.29 14.3765C116.272 14.3883 116.194 14.406 116.134 14.4119C115.461 14.5297 114.939 14.7122 114.476 14.9949C114.374 15.0538 114.296 15.1245 114.236 15.207C114.11 15.3954 113.918 15.4956 113.653 15.5073C113.167 15.5309 112.728 15.4897 112.32 15.3719C112.146 15.3189 111.978 15.2718 111.803 15.2246C111.443 15.1245 111.071 15.0185 110.71 14.9007C110.092 14.6887 109.467 14.3412 108.806 13.8406L108.434 13.5638C107.857 13.128 107.257 12.6745 106.698 12.1974C106.512 12.0384 106.344 11.8499 106.187 11.6379C106.103 11.5319 106.073 11.4435 106.097 11.3729C106.115 11.3022 106.193 11.2374 106.326 11.1785C106.872 10.9606 107.461 10.8369 108.085 10.8251C108.128 10.8251 108.164 10.8192 108.206 10.8192C108.86 10.8192 109.545 10.9606 110.35 11.2433C110.476 11.2904 110.602 11.3375 110.728 11.3788C111.071 11.4965 111.425 11.6143 111.755 11.7851C112.2 12.003 112.602 12.3034 112.987 12.592C113.071 12.6568 113.149 12.7157 113.233 12.7746C113.311 12.8335 113.395 12.8983 113.479 12.9572C113.641 13.0867 113.816 13.2163 113.996 13.3341C114.344 13.5697 114.723 13.6934 115.119 13.7051H115.341C115.509 13.7169 115.684 13.7169 115.858 13.7169C115.966 13.7169 116.05 13.6698 116.092 13.5932C116.134 13.5226 116.128 13.4224 116.068 13.3282C115.984 13.181 115.84 13.0926 115.678 13.0867C114.753 13.0337 114.14 12.4801 113.611 11.8911C113.227 11.4612 112.933 10.9547 112.656 10.46L112.602 10.3775C112.242 9.74734 111.833 9.12305 111.443 8.52231C111.323 8.33973 111.203 8.15716 111.083 7.96869C110.921 7.71544 110.794 7.46219 110.71 7.21483C110.53 6.66121 110.284 6.12525 110.044 5.61286C109.953 5.4244 109.863 5.23004 109.779 5.04157C109.629 4.70587 109.503 4.35838 109.383 4.01679L109.275 3.69875C109.143 3.33949 109.059 2.98022 108.968 2.57384C108.872 2.13213 108.824 1.66096 108.836 1.1309C108.842 1.02489 108.86 0.936543 108.89 0.854089C108.932 0.765746 108.956 0.748077 108.974 0.742188C108.986 0.742188 109.016 0.742188 109.095 0.789304C109.317 0.924764 109.521 1.09556 109.719 1.25458C109.791 1.31348 109.863 1.37237 109.935 1.43127C111.203 2.45016 112.134 3.28059 112.939 4.14047C113.623 4.859 114.308 5.66587 115.095 6.67299C115.966 7.792 116.458 9.05237 116.831 10.1419C116.879 10.2833 116.927 10.4246 116.981 10.5601C117.113 10.9135 117.251 11.2786 117.305 11.6556C117.329 11.844 117.353 12.0443 117.341 12.2504Z" fill="white"/>
</g>
<defs>
<clipPath id="clip0_72_1403">
<rect width="137" height="48" fill="white"/>
</clipPath>
</defs>
</svg>
